<svg data-v-fde0c5aa="" xmlns="http://www.w3.org/2000/svg" viewBox="0 0 300 300" class="iconLeftSlogan"><!----><defs data-v-fde0c5aa=""><!----></defs><rect data-v-fde0c5aa="" fill="#F4E6F2" x="0" y="0" width="300px" height="300px" class="logo-background-square"></rect><defs data-v-fde0c5aa=""><!----></defs><g data-v-fde0c5aa="" id="869d8884-926b-43ca-817f-d567da25b061" fill="#341930" transform="matrix(2.4477036228014355,0,0,2.4477036228014355,112.74615042575556,122.09504785914878)"><path d="M2.94 12.29L2.94 8.67L0 2.69L1.89 2.69L3.85 6.90L3.91 6.90L5.85 2.69L7.66 2.69L4.73 8.67L4.73 12.29L2.94 12.29ZM9.70 12.46L9.70 12.46Q9.02 12.46 8.44 11.99L8.44 11.99L8.44 11.99Q7.85 11.52 7.85 10.39L7.85 10.39L7.85 10.39Q7.85 8.99 8.81 8.40L8.81 8.40L8.81 8.40Q9.76 7.81 11.51 7.81L11.51 7.81L11.51 7.04L11.51 7.04Q11.51 6.61 11.35 6.37L11.35 6.37L11.35 6.37Q11.19 6.13 10.74 6.13L10.74 6.13L10.74 6.13Q10.28 6.13 10.07 6.36L10.07 6.36L10.07 6.36Q9.86 6.59 9.86 6.90L9.86 6.90L9.86 7.11L8.22 7.11L8.22 7.11Q8.20 7.03 8.20 6.80L8.20 6.80L8.20 6.80Q8.20 5.88 8.88 5.32L8.88 5.32L8.88 5.32Q9.56 4.76 10.70 4.76L10.70 4.76L10.70 4.76Q11.96 4.76 12.58 5.32L12.58 5.32L12.58 5.32Q13.20 5.88 13.20 6.93L13.20 6.93L13.20 10.56L13.20 10.56Q13.20 10.81 13.31 10.93L13.31 10.93L13.31 10.93Q13.43 11.05 13.59 11.05L13.59 11.05L13.93 11.05L13.93 12.24L13.93 12.24Q13.51 12.46 12.94 12.46L12.94 12.46L12.94 12.46Q12.45 12.46 12.10 12.20L12.10 12.20L12.10 12.20Q11.76 11.94 11.63 11.49L11.63 11.49L11.56 11.49L11.56 11.49Q11.21 11.98 10.80 12.22L10.80 12.22L10.80 12.22Q10.39 12.46 9.70 12.46L9.70 12.46ZM10.40 11.06L10.40 11.06Q10.96 11.06 11.23 10.61L11.23 10.61L11.23 10.61Q11.51 10.16 11.51 9.45L11.51 9.45L11.51 9.03L11.51 9.03Q10.65 9.03 10.12 9.30L10.12 9.30L10.12 9.30Q9.58 9.58 9.58 10.23L9.58 10.23L9.58 10.23Q9.58 10.63 9.78 10.84L9.78 10.84L9.78 10.84Q9.98 11.06 10.40 11.06L10.40 11.06ZM14.81 12.29L14.81 4.93L16.21 4.93L16.38 5.84L16.46 5.84L16.46 5.84Q16.79 5.36 17.25 5.06L17.25 5.06L17.25 5.06Q17.71 4.76 18.33 4.76L18.33 4.76L18.33 4.76Q19.24 4.76 19.76 5.33L19.76 5.33L19.76 5.33Q20.29 5.89 20.29 7.13L20.29 7.13L20.29 12.29L18.61 12.29L18.61 7.59L18.61 7.59Q18.61 6.90 18.36 6.59L18.36 6.59L18.36 6.59Q18.12 6.29 17.64 6.29L17.64 6.29L17.64 6.29Q17.15 6.29 16.82 6.71L16.82 6.71L16.82 6.71Q16.49 7.14 16.49 7.76L16.49 7.76L16.49 12.29L14.81 12.29ZM21.81 3.70L21.81 2.17L23.49 2.17L23.49 3.70L21.81 3.70ZM21.81 12.29L21.81 4.93L23.49 4.93L23.49 12.29L21.81 12.29ZM25.00 12.29L25.00 2.17L26.68 2.17L26.68 7.85L28.74 4.93L30.53 4.93L28.35 7.92L30.65 12.29L28.78 12.29L27.30 9.24L26.68 10.00L26.68 12.29L25.00 12.29ZM34.66 12.29L34.66 2.69L36.46 2.69L36.46 10.61L40.52 10.61L40.52 12.29L34.66 12.29ZM44.35 12.46L44.35 12.46Q42.87 12.46 42.14 11.52L42.14 11.52L42.14 11.52Q41.41 10.58 41.41 8.61L41.41 8.61L41.41 8.61Q41.41 6.64 42.14 5.70L42.14 5.70L42.14 5.70Q42.87 4.76 44.35 4.76L44.35 4.76L44.35 4.76Q45.84 4.76 46.56 5.70L46.56 5.70L46.56 5.70Q47.29 6.64 47.29 8.61L47.29 8.61L47.29 8.61Q47.29 10.58 46.56 11.52L46.56 11.52L46.56 11.52Q45.84 12.46 44.35 12.46L44.35 12.46ZM44.35 11.05L44.35 11.05Q44.98 11.05 45.26 10.51L45.26 10.51L45.26 10.51Q45.54 9.97 45.54 8.88L45.54 8.88L45.54 8.34L45.54 8.34Q45.54 7.25 45.26 6.71L45.26 6.71L45.26 6.71Q44.98 6.17 44.35 6.17L44.35 6.17L44.35 6.17Q43.72 6.17 43.44 6.71L43.44 6.71L43.44 6.71Q43.16 7.25 43.16 8.34L43.16 8.34L43.16 8.88L43.16 8.88Q43.16 9.97 43.44 10.51L43.44 10.51L43.44 10.51Q43.72 11.05 44.35 11.05L44.35 11.05ZM50.19 12.29L47.91 4.93L49.67 4.93L50.62 8.09L50.62 8.09Q50.74 8.44 50.89 9.24L50.89 9.24L50.89 9.24Q51.04 10.04 51.09 10.30L51.09 10.30L51.14 10.30L51.14 10.30Q51.18 10.05 51.31 9.28L51.31 9.28L51.31 9.28Q51.44 8.50 51.56 8.09L51.56 8.09L52.50 4.93L54.18 4.93L51.90 12.29L50.19 12.29ZM57.55 12.46L57.55 12.46Q56.11 12.46 55.39 11.52L55.39 11.52L55.39 11.52Q54.67 10.57 54.67 8.61L54.67 8.61L54.67 8.61Q54.67 4.76 57.50 4.76L57.50 4.76L57.50 4.76Q58.84 4.76 59.50 5.70L59.50 5.70L59.50 5.70Q60.16 6.64 60.16 8.61L60.16 8.61L60.16 9.03L56.42 9.03L56.42 9.03Q56.43 10.07 56.69 10.58L56.69 10.58L56.69 10.58Q56.95 11.09 57.55 11.09L57.55 11.09L57.55 11.09Q57.99 11.09 58.24 10.72L58.24 10.72L58.24 10.72Q58.49 10.35 58.49 9.69L58.49 9.69L60.16 9.69L60.16 9.69Q60.16 11.06 59.44 11.76L59.44 11.76L59.44 11.76Q58.73 12.46 57.55 12.46L57.55 12.46ZM56.43 7.81L58.39 7.81L58.39 7.81Q58.39 6.13 57.50 6.13L57.50 6.13L57.50 6.13Q56.98 6.13 56.73 6.56L56.73 6.56L56.73 6.56Q56.48 6.99 56.43 7.81L56.43 7.81Z"></path></g><defs data-v-fde0c5aa=""><linearGradient data-v-fde0c5aa="" gradientTransform="rotate(25)" id="e41fcb37-6e0e-40e3-ac42-45a7807b040f" x1="0%" y1="0%" x2="100%" y2="0%"><stop data-v-fde0c5aa="" offset="0%" stop-color="#8E42D3" stop-opacity="1"></stop><stop data-v-fde0c5aa="" offset="100%" stop-color="#D46975" stop-opacity="1"></stop></linearGradient></defs><g data-v-fde0c5aa="" id="0d64abeb-0410-4450-b1b8-079f82cc270b" stroke="none" fill="url(#e41fcb37-6e0e-40e3-ac42-45a7807b040f)" transform="matrix(0.599386902982162,0,0,0.599386902982162,39.90388325790153,120.0307951835761)"><path d="M73.262 6.669C57.377 6.758 50 20.143 50 20.143S42.624 6.758 26.736 6.669C1.49 6.528-7.738 38.265 7.689 59.29 18.508 74.043 31.275 81.133 50 93.331 68.723 81.133 81.488 74.043 92.311 59.29c15.427-21.025 6.197-52.762-19.049-52.621zM88.635 42.72a3.374 3.374 0 0 1-2.773-3.884c1.531-9.194-4.705-17.922-13.9-19.454a3.374 3.374 0 1 1 1.11-6.657c12.867 2.143 21.59 14.354 19.445 27.221a3.375 3.375 0 0 1-3.882 2.774z"></path></g><defs data-v-fde0c5aa=""><!----></defs><g data-v-fde0c5aa="" id="c40c2fbf-ae16-485b-9895-2bb360c6a57e" fill="#341930" transform="matrix(0.1911518693763275,0,0,0.1911518693763275,112.72703523853309,162.03909465320612)"><path d="M0.10 3.44C0.10 3.68 0.18 3.70 0.35 3.70L0.76 3.70C0.88 3.70 3.14 7.74 3.54 8.50C3.60 8.60 3.64 8.65 3.64 8.81C3.64 10.50 3.63 12.18 3.50 12.18L2.79 12.18C2.56 12.18 2.52 12.19 2.52 12.39C2.52 12.63 2.53 12.68 2.73 12.68C2.93 12.68 3.74 12.64 4.33 12.64C5.15 12.64 5.68 12.68 6.01 12.68C6.17 12.68 6.20 12.61 6.20 12.40C6.20 12.24 6.17 12.18 6.01 12.18L5.04 12.18C4.94 12.18 4.91 9.72 4.91 8.22C4.91 8.18 4.91 8.15 4.96 8.09C5.50 7.22 7.45 3.70 7.52 3.70L7.99 3.70C8.16 3.70 8.26 3.68 8.26 3.44C8.26 3.22 8.18 3.19 7.99 3.19C7.77 3.19 7.53 3.23 6.93 3.23C6.34 3.23 6.01 3.19 5.84 3.19C5.64 3.19 5.60 3.25 5.60 3.49C5.60 3.68 5.67 3.70 5.89 3.70L6.62 3.70C6.64 3.70 6.65 3.71 6.65 3.74C6.65 4.05 5.08 6.99 4.70 7.71C4.59 7.92 4.59 7.88 4.48 7.67C4.07 6.89 2.79 4.56 2.49 3.85C2.44 3.71 2.42 3.70 2.60 3.70L3.43 3.70C3.65 3.70 3.68 3.68 3.68 3.49C3.68 3.25 3.64 3.19 3.49 3.19C3.25 3.19 2.63 3.23 1.83 3.23C1.02 3.23 0.53 3.19 0.35 3.19C0.17 3.19 0.10 3.21 0.10 3.44ZM15.39 8.15C15.39 11.17 17.72 12.80 19.98 12.80C22.76 12.80 24.74 10.89 24.74 8.06C24.74 5.33 22.99 3.11 20.19 3.11C17.58 3.11 15.39 5.10 15.39 8.15ZM16.79 7.77C16.79 5.64 18.07 3.58 20.05 3.58C22.29 3.58 23.37 5.81 23.37 7.94C23.37 10.08 22.26 12.32 19.99 12.32C18.00 12.32 16.79 10.28 16.79 7.77ZM32.84 3.51C32.84 3.75 32.93 3.77 33.10 3.77L33.63 3.77C33.68 3.77 33.68 4.12 33.68 4.55C33.68 5.66 33.67 8.96 33.67 9.42C33.67 11.13 33.92 12.80 36.78 12.80C37.86 12.80 39.02 12.38 39.68 12.00C39.93 11.86 40.22 11.72 40.31 11.72C40.57 11.72 40.84 12.74 41.17 12.74C41.50 12.74 41.51 12.35 41.51 12.25C41.51 11.96 41.57 10.08 41.61 8.16C41.66 6.12 41.65 3.77 41.76 3.77L42.08 3.77C42.31 3.77 42.38 3.75 42.38 3.56C42.38 3.32 42.34 3.26 42.14 3.26C42 3.26 41.47 3.30 41.05 3.30C40.63 3.30 39.83 3.26 39.61 3.26C39.42 3.26 39.33 3.28 39.33 3.51C39.33 3.75 39.44 3.77 39.61 3.77L40.31 3.77C40.38 3.77 40.39 4.30 40.39 4.87L40.39 9.14C40.39 11.19 40.39 11.12 40.05 11.34C39.66 11.61 38.85 12.08 37.67 12.08C35.70 12.08 34.90 11.17 34.90 9.41C34.90 8.82 34.97 3.77 35.08 3.77L35.99 3.77C36.22 3.77 36.26 3.75 36.26 3.56C36.26 3.32 36.25 3.26 36.05 3.26C35.73 3.26 34.85 3.30 34.43 3.30C34.01 3.30 33.32 3.26 33.10 3.26C32.91 3.26 32.84 3.28 32.84 3.51ZM60.07 12.39C60.07 12.63 60.07 12.68 60.27 12.68C60.44 12.68 60.76 12.64 61.33 12.64C61.95 12.64 62.50 12.68 62.65 12.68C62.82 12.68 62.82 12.61 62.82 12.40C62.82 12.24 62.82 12.18 62.65 12.18L61.57 12.18C61.57 12.18 61.56 12.18 61.56 12.17C61.57 11.87 62.34 9.90 62.69 9.02C62.76 8.83 62.78 8.79 62.99 8.79L65.81 8.79C65.95 8.79 65.95 8.81 66.02 9.03C66.29 9.77 67.00 11.89 67.00 12.17C67.00 12.18 66.99 12.18 66.99 12.18L66.22 12.18C66.00 12.18 65.98 12.19 65.98 12.39C65.98 12.63 66.00 12.68 66.16 12.68C66.49 12.68 67.35 12.64 67.77 12.64C68.19 12.64 68.87 12.68 69.08 12.68C69.22 12.68 69.23 12.61 69.23 12.40C69.23 12.24 69.22 12.18 69.08 12.18L68.59 12.18C68.49 12.18 67.47 9.34 66.91 7.78L65.23 3.07C65.21 3.00 65.14 2.94 65.06 2.94C64.93 2.94 64.83 3.16 64.75 3.35C64.60 3.71 64.36 3.84 64.25 4.13L62.76 7.57C62.58 8.01 60.87 12.18 60.75 12.18L60.33 12.18C60.10 12.18 60.07 12.19 60.07 12.39ZM62.97 8.33C62.97 8.30 63 8.23 63.04 8.13L64.41 4.77C64.46 4.66 64.48 4.61 64.51 4.61C64.53 4.61 64.54 4.63 64.58 4.77L65.74 8.18C65.77 8.25 65.79 8.29 65.79 8.32C65.79 8.36 65.76 8.37 65.66 8.37L63.15 8.37C62.97 8.37 62.97 8.34 62.97 8.33ZM76.99 3.51C76.99 3.72 77.06 3.79 77.25 3.79L78.06 3.77C78.16 3.77 78.20 6.61 78.20 8.55L78.20 10.42C78.20 11.30 78.19 12.18 78.15 12.18L77.55 12.18C77.32 12.18 77.25 12.19 77.25 12.39C77.25 12.63 77.29 12.68 77.49 12.68C77.62 12.68 78.44 12.64 78.86 12.64C79.28 12.64 80.05 12.68 80.37 12.68C80.54 12.68 80.57 12.61 80.57 12.40C80.57 12.24 80.54 12.18 80.37 12.18L79.56 12.18C79.49 12.18 79.41 9.18 79.41 8.37C79.41 8.30 79.41 8.26 79.52 8.26C79.91 8.26 80.51 8.27 80.81 8.27C83.05 8.32 83.19 10.00 83.19 11.68L83.19 12.49C83.19 12.61 83.24 12.64 83.34 12.64C83.34 12.64 84.78 12.68 85.26 12.68C85.43 12.68 85.48 12.64 85.48 12.53C85.48 12.24 85.43 12.18 85.27 12.18L84.63 12.18C84.53 12.18 84.50 12.14 84.48 11.31C84.39 8.99 83.02 8.34 82.11 8.05C81.97 8.01 82.00 8.01 82.11 7.95C82.70 7.69 84.01 6.94 84.01 5.63C84.01 3.63 82.32 3.21 80.92 3.21C80.60 3.21 79.31 3.29 78.89 3.29C78.47 3.29 77.49 3.26 77.27 3.26C77.08 3.26 76.99 3.28 76.99 3.51ZM79.41 7.80L79.41 4.40C79.41 4.05 79.44 3.68 79.48 3.68C79.69 3.65 79.97 3.65 80.19 3.65C81.49 3.65 82.74 4.47 82.74 5.82C82.74 6.99 82.19 7.57 81.54 7.88C81.49 7.90 81.45 7.90 81.38 7.90C80.91 7.88 80.19 7.88 79.59 7.87C79.42 7.87 79.41 7.85 79.41 7.80ZM92.96 12.39C92.96 12.63 92.99 12.68 93.18 12.68C93.51 12.68 94.47 12.64 94.89 12.64C95.31 12.64 99.82 12.68 100.14 12.68C100.27 12.68 100.42 12.66 100.42 12.49C100.42 12.07 100.46 11.23 100.46 10.53C100.46 10.39 100.31 10.39 100.18 10.39C100.07 10.39 99.95 10.39 99.95 10.51C99.93 11.06 99.93 11.41 99.90 11.76C99.88 12.01 99.88 12.04 99.78 12.04C99.62 12.04 96.99 12.08 95.49 12.08C95.42 12.08 95.38 10.11 95.34 8.26C95.34 8.06 95.38 8.09 95.52 8.09L97.80 8.09C98.50 8.09 98.53 8.20 98.53 8.30L98.53 9.00C98.53 9.14 98.71 9.14 98.83 9.14C98.92 9.14 99.05 9.13 99.05 9.02C99.05 8.83 99.02 8.33 99.02 7.83C99.02 7.32 99.05 6.83 99.05 6.71C99.05 6.59 98.91 6.58 98.81 6.58C98.70 6.58 98.53 6.59 98.53 6.72L98.53 7.45C98.53 7.62 98.08 7.63 97.80 7.63L95.47 7.63C95.35 7.63 95.34 7.63 95.34 7.45C95.33 6.75 95.31 6.06 95.31 5.46C95.31 5.12 95.31 3.71 95.40 3.71C96.63 3.71 99.13 3.75 99.13 3.81C99.13 3.99 99.09 4.83 99.09 4.89C99.09 5.04 99.16 5.10 99.34 5.10C99.54 5.10 99.61 5.08 99.61 4.94C99.61 3.85 99.67 3.36 99.67 3.09C99.67 2.91 99.58 2.90 99.39 2.90C99.19 2.90 99.19 2.95 99.16 3.11C99.15 3.25 99.22 3.25 98.31 3.25C97.69 3.25 95.55 3.29 94.78 3.29C94.29 3.29 93.35 3.25 93.25 3.25C93.13 3.25 93.07 3.30 93.07 3.49C93.07 3.72 93.14 3.74 93.31 3.74L93.97 3.74C94.02 3.74 94.09 4.79 94.09 5.71C94.09 5.80 94.15 8.27 94.15 9.83L94.15 11.17C94.15 11.84 94.12 12.18 94.09 12.18L93.24 12.18C93.02 12.18 92.96 12.21 92.96 12.39ZM117.96 5.01C117.96 5.17 118.15 5.17 118.27 5.17C118.43 5.17 118.47 5.15 118.48 4.97L118.59 3.89C118.61 3.81 119.15 3.75 119.91 3.75L121.90 3.75C121.95 3.75 121.98 4.35 121.98 4.97C121.98 6.43 121.93 12.18 121.80 12.18L120.93 12.18C120.71 12.18 120.67 12.19 120.67 12.39C120.67 12.63 120.68 12.68 120.88 12.68C121.20 12.68 122.18 12.64 122.60 12.64C123.02 12.64 123.96 12.68 124.28 12.68C124.45 12.68 124.47 12.61 124.47 12.40C124.47 12.24 124.45 12.18 124.28 12.18L123.28 12.18C123.26 12.18 123.26 11.76 123.26 11.31C123.26 9.56 123.34 5.96 123.34 5.92C123.35 5.18 123.35 3.75 123.45 3.75L125.06 3.75C125.78 3.75 126.60 3.78 126.60 3.85C126.60 3.99 126.56 4.90 126.56 4.97C126.56 5.12 126.63 5.17 126.81 5.17C127.01 5.17 127.08 5.17 127.08 5.03C127.08 3.93 127.13 3.40 127.13 3.14C127.13 2.94 127.05 2.94 126.85 2.94C126.70 2.94 126.64 2.98 126.63 3.16C126.63 3.23 125.99 3.28 125.15 3.28L120.15 3.28C119.49 3.28 118.68 3.28 118.68 3.21L118.68 3.07C118.68 2.94 118.55 2.94 118.45 2.94C118.23 2.94 118.20 3.00 118.19 3.19C118.13 3.89 117.96 4.97 117.96 5.01ZM134.89 12.39C134.89 12.63 134.89 12.68 135.09 12.68C135.41 12.68 136.35 12.64 136.77 12.64C137.19 12.64 138.01 12.68 138.33 12.68C138.50 12.68 138.50 12.61 138.50 12.40C138.50 12.24 138.50 12.18 138.33 12.18L137.41 12.18C137.33 12.18 137.28 9.93 137.28 8.20C137.28 8.01 137.28 8.01 137.41 8.01L142.65 8.01C142.72 8.01 142.73 8.01 142.73 8.18L142.73 9.91C142.73 11.05 142.72 12.18 142.66 12.18L141.89 12.18C141.67 12.18 141.62 12.19 141.62 12.39C141.62 12.63 141.64 12.68 141.83 12.68C142.16 12.68 143.00 12.64 143.42 12.64C143.84 12.64 144.42 12.68 144.75 12.68C144.91 12.68 144.93 12.61 144.93 12.40C144.93 12.24 144.91 12.18 144.75 12.18L144.00 12.18C143.96 12.18 143.95 9.27 143.95 7.04C143.95 5.40 143.95 3.70 143.99 3.70L144.61 3.70C144.83 3.70 144.87 3.68 144.87 3.49C144.87 3.25 144.86 3.19 144.66 3.19C144.52 3.19 143.89 3.23 143.30 3.23C142.63 3.23 142.03 3.19 141.81 3.19C141.61 3.19 141.58 3.22 141.58 3.44C141.58 3.67 141.65 3.70 141.82 3.70L142.62 3.70C142.67 3.70 142.73 4.79 142.73 5.71L142.73 7.42C142.73 7.59 142.73 7.59 142.56 7.59L137.45 7.59C137.28 7.59 137.28 7.59 137.28 7.38C137.28 6.96 137.27 6.23 137.27 5.53C137.27 4.66 137.28 3.70 137.34 3.70L138.11 3.70C138.33 3.70 138.38 3.68 138.38 3.49C138.38 3.25 138.36 3.19 138.17 3.19C137.84 3.19 137.26 3.23 136.65 3.23C136.07 3.23 135.58 3.19 135.35 3.19C135.17 3.19 135.07 3.21 135.07 3.44C135.07 3.68 135.18 3.70 135.35 3.70L135.97 3.70C136.02 3.70 136.04 5.59 136.04 7.18L136.04 8.61C136.04 10.08 136.02 12.18 135.95 12.18L135.14 12.18C134.92 12.18 134.89 12.19 134.89 12.39ZM152.96 12.39C152.96 12.63 152.99 12.68 153.19 12.68C153.51 12.68 154.48 12.64 154.90 12.64C155.32 12.64 159.82 12.68 160.15 12.68C160.27 12.68 160.43 12.66 160.43 12.49C160.43 12.07 160.47 11.23 160.47 10.53C160.47 10.39 160.31 10.39 160.19 10.39C160.08 10.39 159.95 10.39 159.95 10.51C159.94 11.06 159.94 11.41 159.91 11.76C159.88 12.01 159.88 12.04 159.78 12.04C159.63 12.04 157.00 12.08 155.50 12.08C155.43 12.08 155.39 10.11 155.34 8.26C155.34 8.06 155.39 8.09 155.53 8.09L157.81 8.09C158.51 8.09 158.54 8.20 158.54 8.30L158.54 9.00C158.54 9.14 158.72 9.14 158.83 9.14C158.93 9.14 159.05 9.13 159.05 9.02C159.05 8.83 159.03 8.33 159.03 7.83C159.03 7.32 159.05 6.83 159.05 6.71C159.05 6.59 158.91 6.58 158.82 6.58C158.70 6.58 158.54 6.59 158.54 6.72L158.54 7.45C158.54 7.62 158.09 7.63 157.81 7.63L155.47 7.63C155.36 7.63 155.34 7.63 155.34 7.45C155.33 6.75 155.32 6.06 155.32 5.46C155.32 5.12 155.32 3.71 155.40 3.71C156.63 3.71 159.14 3.75 159.14 3.81C159.14 3.99 159.10 4.83 159.10 4.89C159.10 5.04 159.17 5.10 159.35 5.10C159.54 5.10 159.61 5.08 159.61 4.94C159.61 3.85 159.67 3.36 159.67 3.09C159.67 2.91 159.59 2.90 159.39 2.90C159.19 2.90 159.19 2.95 159.17 3.11C159.15 3.25 159.22 3.25 158.31 3.25C157.70 3.25 155.55 3.29 154.78 3.29C154.29 3.29 153.36 3.25 153.26 3.25C153.13 3.25 153.08 3.30 153.08 3.49C153.08 3.72 153.15 3.74 153.31 3.74L153.97 3.74C154.03 3.74 154.10 4.79 154.10 5.71C154.10 5.80 154.15 8.27 154.15 9.83L154.15 11.17C154.15 11.84 154.13 12.18 154.10 12.18L153.24 12.18C153.02 12.18 152.96 12.21 152.96 12.39ZM178.30 8.15C178.30 11.17 180.64 12.80 182.90 12.80C185.68 12.80 187.66 10.89 187.66 8.06C187.66 5.33 185.91 3.11 183.11 3.11C180.50 3.11 178.30 5.10 178.30 8.15ZM179.70 7.77C179.70 5.64 180.99 3.58 182.97 3.58C185.21 3.58 186.28 5.81 186.28 7.94C186.28 10.08 185.18 12.32 182.91 12.32C180.92 12.32 179.70 10.28 179.70 7.77ZM195.76 12.39C195.76 12.63 195.78 12.68 195.97 12.68C196.15 12.68 196.53 12.64 197.15 12.64C197.78 12.64 198.34 12.68 198.66 12.68C198.83 12.68 198.83 12.61 198.83 12.40C198.83 12.24 198.83 12.18 198.66 12.18L197.46 12.18C197.41 12.18 197.40 11.54 197.40 10.79C197.40 9.46 197.41 7.48 197.41 5.99C197.41 5.25 197.41 4.84 197.43 4.28C197.43 4.02 197.50 4.14 197.62 4.28L204.51 12.66C204.60 12.75 204.68 12.89 204.79 12.89C204.90 12.89 204.97 12.77 204.97 12.54C204.97 12.39 205.14 6.65 205.16 4.48C205.16 4.06 205.18 3.70 205.21 3.70L205.84 3.70C206.07 3.70 206.12 3.68 206.12 3.49C206.12 3.25 206.12 3.19 205.93 3.19C205.73 3.19 205.30 3.23 204.74 3.23C204.12 3.23 203.32 3.19 203.22 3.19C203.06 3.19 203.06 3.26 203.06 3.47C203.06 3.64 203.06 3.70 203.22 3.70L204.53 3.70C204.54 3.70 204.54 4.33 204.54 4.44C204.54 5.85 204.57 8.33 204.57 9.70L204.57 10.29C204.57 10.57 204.55 10.65 204.33 10.37L198.65 3.39C198.53 3.25 198.51 3.19 198.34 3.19C198.25 3.19 197.88 3.23 197.57 3.23C197.27 3.23 196.20 3.19 196.00 3.19C195.83 3.19 195.80 3.26 195.80 3.47C195.80 3.64 195.83 3.70 196.00 3.70L196.91 3.70C196.91 4.17 196.87 8.53 196.80 10.79C196.77 11.69 196.78 12.18 196.67 12.18L196.03 12.18C195.80 12.18 195.76 12.19 195.76 12.39ZM214.16 12.39C214.16 12.63 214.19 12.68 214.38 12.68C214.70 12.68 215.67 12.64 216.09 12.64C216.51 12.64 221.02 12.68 221.34 12.68C221.47 12.68 221.62 12.66 221.62 12.49C221.62 12.07 221.66 11.23 221.66 10.53C221.66 10.39 221.51 10.39 221.38 10.39C221.27 10.39 221.14 10.39 221.14 10.51C221.13 11.06 221.13 11.41 221.10 11.76C221.07 12.01 221.07 12.04 220.98 12.04C220.82 12.04 218.19 12.08 216.69 12.08C216.62 12.08 216.58 10.11 216.54 8.26C216.54 8.06 216.58 8.09 216.72 8.09L219.00 8.09C219.70 8.09 219.73 8.20 219.73 8.30L219.73 9.00C219.73 9.14 219.91 9.14 220.02 9.14C220.12 9.14 220.25 9.13 220.25 9.02C220.25 8.83 220.22 8.33 220.22 7.83C220.22 7.32 220.25 6.83 220.25 6.71C220.25 6.59 220.11 6.58 220.01 6.58C219.90 6.58 219.73 6.59 219.73 6.72L219.73 7.45C219.73 7.62 219.28 7.63 219.00 7.63L216.66 7.63C216.55 7.63 216.54 7.63 216.54 7.45C216.52 6.75 216.51 6.06 216.51 5.46C216.51 5.12 216.51 3.71 216.59 3.71C217.83 3.71 220.33 3.75 220.33 3.81C220.33 3.99 220.29 4.83 220.29 4.89C220.29 5.04 220.36 5.10 220.54 5.10C220.74 5.10 220.81 5.08 220.81 4.94C220.81 3.85 220.86 3.36 220.86 3.09C220.86 2.91 220.78 2.90 220.58 2.90C220.39 2.90 220.39 2.95 220.36 3.11C220.35 3.25 220.42 3.25 219.51 3.25C218.89 3.25 216.75 3.29 215.98 3.29C215.49 3.29 214.55 3.25 214.45 3.25C214.33 3.25 214.27 3.30 214.27 3.49C214.27 3.72 214.34 3.74 214.51 3.74L215.17 3.74C215.22 3.74 215.29 4.79 215.29 5.71C215.29 5.80 215.35 8.27 215.35 9.83L215.35 11.17C215.35 11.84 215.32 12.18 215.29 12.18L214.44 12.18C214.21 12.18 214.16 12.21 214.16 12.39ZM239.16 5.01C239.16 5.17 239.34 5.17 239.47 5.17C239.62 5.17 239.67 5.15 239.68 4.97L239.79 3.89C239.81 3.81 240.35 3.75 241.11 3.75L243.10 3.75C243.15 3.75 243.18 4.35 243.18 4.97C243.18 6.43 243.12 12.18 243.00 12.18L242.13 12.18C241.91 12.18 241.86 12.19 241.86 12.39C241.86 12.63 241.88 12.68 242.07 12.68C242.40 12.68 243.38 12.64 243.80 12.64C244.22 12.64 245.15 12.68 245.48 12.68C245.64 12.68 245.67 12.61 245.67 12.40C245.67 12.24 245.64 12.18 245.48 12.18L244.48 12.18C244.45 12.18 244.45 11.76 244.45 11.31C244.45 9.56 244.54 5.96 244.54 5.92C244.55 5.18 244.55 3.75 244.65 3.75L246.26 3.75C246.97 3.75 247.80 3.78 247.80 3.85C247.80 3.99 247.76 4.90 247.76 4.97C247.76 5.12 247.83 5.17 248.01 5.17C248.21 5.17 248.28 5.17 248.28 5.03C248.28 3.93 248.33 3.40 248.33 3.14C248.33 2.94 248.25 2.94 248.05 2.94C247.90 2.94 247.84 2.98 247.83 3.16C247.83 3.23 247.18 3.28 246.34 3.28L241.35 3.28C240.69 3.28 239.88 3.28 239.88 3.21L239.88 3.07C239.88 2.94 239.75 2.94 239.65 2.94C239.43 2.94 239.40 3.00 239.39 3.19C239.33 3.89 239.16 4.97 239.16 5.01ZM256.09 12.39C256.09 12.63 256.09 12.68 256.28 12.68C256.61 12.68 257.54 12.64 257.96 12.64C258.38 12.64 259.21 12.68 259.53 12.68C259.70 12.68 259.70 12.61 259.70 12.40C259.70 12.24 259.70 12.18 259.53 12.18L258.61 12.18C258.52 12.18 258.48 9.93 258.48 8.20C258.48 8.01 258.48 8.01 258.61 8.01L263.84 8.01C263.91 8.01 263.93 8.01 263.93 8.18L263.93 9.91C263.93 11.05 263.91 12.18 263.86 12.18L263.09 12.18C262.86 12.18 262.82 12.19 262.82 12.39C262.82 12.63 262.84 12.68 263.03 12.68C263.35 12.68 264.19 12.64 264.61 12.64C265.03 12.64 265.62 12.68 265.94 12.68C266.11 12.68 266.13 12.61 266.13 12.40C266.13 12.24 266.11 12.18 265.94 12.18L265.20 12.18C265.16 12.18 265.15 9.27 265.15 7.04C265.15 5.40 265.15 3.70 265.19 3.70L265.80 3.70C266.03 3.70 266.07 3.68 266.07 3.49C266.07 3.25 266.06 3.19 265.86 3.19C265.72 3.19 265.09 3.23 264.50 3.23C263.83 3.23 263.23 3.19 263.00 3.19C262.81 3.19 262.78 3.22 262.78 3.44C262.78 3.67 262.85 3.70 263.02 3.70L263.82 3.70C263.87 3.70 263.93 4.79 263.93 5.71L263.93 7.42C263.93 7.59 263.93 7.59 263.76 7.59L258.65 7.59C258.48 7.59 258.48 7.59 258.48 7.38C258.48 6.96 258.47 6.23 258.47 5.53C258.47 4.66 258.48 3.70 258.54 3.70L259.31 3.70C259.53 3.70 259.57 3.68 259.57 3.49C259.57 3.25 259.56 3.19 259.36 3.19C259.04 3.19 258.45 3.23 257.85 3.23C257.26 3.23 256.77 3.19 256.55 3.19C256.37 3.19 256.27 3.21 256.27 3.44C256.27 3.68 256.38 3.70 256.55 3.70L257.17 3.70C257.22 3.70 257.24 5.59 257.24 7.18L257.24 8.61C257.24 10.08 257.22 12.18 257.15 12.18L256.34 12.18C256.12 12.18 256.09 12.19 256.09 12.39ZM274.02 12.39C274.02 12.63 274.02 12.68 274.22 12.68C274.39 12.68 274.71 12.64 275.28 12.64C275.90 12.64 276.44 12.68 276.60 12.68C276.77 12.68 276.77 12.61 276.77 12.40C276.77 12.24 276.77 12.18 276.60 12.18L275.52 12.18C275.52 12.18 275.51 12.18 275.51 12.17C275.52 11.87 276.29 9.90 276.64 9.02C276.71 8.83 276.72 8.79 276.93 8.79L279.76 8.79C279.90 8.79 279.90 8.81 279.97 9.03C280.24 9.77 280.95 11.89 280.95 12.17C280.95 12.18 280.94 12.18 280.94 12.18L280.17 12.18C279.94 12.18 279.93 12.19 279.93 12.39C279.93 12.63 279.94 12.68 280.11 12.68C280.43 12.68 281.30 12.64 281.72 12.64C282.14 12.64 282.81 12.68 283.02 12.68C283.16 12.68 283.18 12.61 283.18 12.40C283.18 12.24 283.16 12.18 283.02 12.18L282.53 12.18C282.44 12.18 281.41 9.34 280.85 7.78L279.17 3.07C279.16 3.00 279.09 2.94 279.01 2.94C278.88 2.94 278.78 3.16 278.70 3.35C278.54 3.71 278.31 3.84 278.19 4.13L276.71 7.57C276.53 8.01 274.82 12.18 274.69 12.18L274.27 12.18C274.05 12.18 274.02 12.19 274.02 12.39ZM276.92 8.33C276.92 8.30 276.95 8.23 276.99 8.13L278.36 4.77C278.40 4.66 278.43 4.61 278.46 4.61C278.47 4.61 278.49 4.63 278.53 4.77L279.69 8.18C279.72 8.25 279.73 8.29 279.73 8.32C279.73 8.36 279.71 8.37 279.61 8.37L277.10 8.37C276.92 8.37 276.92 8.34 276.92 8.33ZM289.27 5.01C289.27 5.17 289.45 5.17 289.58 5.17C289.73 5.17 289.77 5.15 289.79 4.97L289.90 3.89C289.91 3.81 290.46 3.75 291.21 3.75L293.20 3.75C293.26 3.75 293.29 4.35 293.29 4.97C293.29 6.43 293.23 12.18 293.10 12.18L292.24 12.18C292.01 12.18 291.97 12.19 291.97 12.39C291.97 12.63 291.98 12.68 292.18 12.68C292.50 12.68 293.48 12.64 293.90 12.64C294.32 12.64 295.26 12.68 295.58 12.68C295.75 12.68 295.78 12.61 295.78 12.40C295.78 12.24 295.75 12.18 295.58 12.18L294.59 12.18C294.56 12.18 294.56 11.76 294.56 11.31C294.56 9.56 294.64 5.96 294.64 5.92C294.66 5.18 294.66 3.75 294.76 3.75L296.37 3.75C297.08 3.75 297.91 3.78 297.91 3.85C297.91 3.99 297.86 4.90 297.86 4.97C297.86 5.12 297.93 5.17 298.12 5.17C298.31 5.17 298.38 5.17 298.38 5.03C298.38 3.93 298.44 3.40 298.44 3.14C298.44 2.94 298.35 2.94 298.16 2.94C298.00 2.94 297.95 2.98 297.93 3.16C297.93 3.23 297.29 3.28 296.45 3.28L291.45 3.28C290.79 3.28 289.98 3.28 289.98 3.21L289.98 3.07C289.98 2.94 289.86 2.94 289.76 2.94C289.53 2.94 289.51 3.00 289.49 3.19C289.44 3.89 289.27 4.97 289.27 5.01ZM315.57 3.44C315.57 3.68 315.66 3.70 315.83 3.70L316.23 3.70C316.36 3.70 318.61 7.74 319.02 8.50C319.07 8.60 319.12 8.65 319.12 8.81C319.12 10.50 319.10 12.18 318.98 12.18L318.26 12.18C318.04 12.18 318.00 12.19 318.00 12.39C318.00 12.63 318.01 12.68 318.21 12.68C318.40 12.68 319.21 12.64 319.80 12.64C320.63 12.64 321.16 12.68 321.48 12.68C321.65 12.68 321.68 12.61 321.68 12.40C321.68 12.24 321.65 12.18 321.48 12.18L320.52 12.18C320.42 12.18 320.39 9.72 320.39 8.22C320.39 8.18 320.39 8.15 320.43 8.09C320.98 7.22 322.92 3.70 322.99 3.70L323.47 3.70C323.64 3.70 323.74 3.68 323.74 3.44C323.74 3.22 323.65 3.19 323.47 3.19C323.25 3.19 323.01 3.23 322.41 3.23C321.82 3.23 321.48 3.19 321.31 3.19C321.12 3.19 321.08 3.25 321.08 3.49C321.08 3.68 321.15 3.70 321.37 3.70L322.10 3.70C322.11 3.70 322.13 3.71 322.13 3.74C322.13 4.05 320.56 6.99 320.18 7.71C320.07 7.92 320.07 7.88 319.96 7.67C319.55 6.89 318.26 4.56 317.97 3.85C317.91 3.71 317.90 3.70 318.08 3.70L318.91 3.70C319.13 3.70 319.16 3.68 319.16 3.49C319.16 3.25 319.12 3.19 318.96 3.19C318.72 3.19 318.11 3.23 317.31 3.23C316.50 3.23 316.01 3.19 315.83 3.19C315.64 3.19 315.57 3.21 315.57 3.44ZM330.86 8.15C330.86 11.17 333.20 12.80 335.45 12.80C338.24 12.80 340.21 10.89 340.21 8.06C340.21 5.33 338.46 3.11 335.66 3.11C333.06 3.11 330.86 5.10 330.86 8.15ZM332.26 7.77C332.26 5.64 333.55 3.58 335.52 3.58C337.76 3.58 338.84 5.81 338.84 7.94C338.84 10.08 337.74 12.32 335.47 12.32C333.48 12.32 332.26 10.28 332.26 7.77ZM348.32 3.51C348.32 3.75 348.40 3.77 348.57 3.77L349.10 3.77C349.16 3.77 349.16 4.12 349.16 4.55C349.16 5.66 349.15 8.96 349.15 9.42C349.15 11.13 349.40 12.80 352.25 12.80C353.33 12.80 354.49 12.38 355.15 12.00C355.40 11.86 355.70 11.72 355.78 11.72C356.05 11.72 356.31 12.74 356.65 12.74C356.97 12.74 356.99 12.35 356.99 12.25C356.99 11.96 357.04 10.08 357.08 8.16C357.14 6.12 357.13 3.77 357.24 3.77L357.56 3.77C357.78 3.77 357.85 3.75 357.85 3.56C357.85 3.32 357.81 3.26 357.62 3.26C357.48 3.26 356.94 3.30 356.52 3.30C356.10 3.30 355.31 3.26 355.08 3.26C354.90 3.26 354.80 3.28 354.80 3.51C354.80 3.75 354.91 3.77 355.08 3.77L355.78 3.77C355.85 3.77 355.87 4.30 355.87 4.87L355.87 9.14C355.87 11.19 355.87 11.12 355.53 11.34C355.14 11.61 354.33 12.08 353.15 12.08C351.18 12.08 350.38 11.17 350.38 9.41C350.38 8.82 350.45 3.77 350.56 3.77L351.47 3.77C351.69 3.77 351.74 3.75 351.74 3.56C351.74 3.32 351.72 3.26 351.53 3.26C351.20 3.26 350.32 3.30 349.90 3.30C349.48 3.30 348.80 3.26 348.57 3.26C348.39 3.26 348.32 3.28 348.32 3.51ZM375.42 5.01C375.42 5.17 375.61 5.17 375.73 5.17C375.89 5.17 375.93 5.15 375.94 4.97L376.05 3.89C376.07 3.81 376.61 3.75 377.37 3.75L379.36 3.75C379.41 3.75 379.44 4.35 379.44 4.97C379.44 6.43 379.39 12.18 379.26 12.18L378.39 12.18C378.17 12.18 378.13 12.19 378.13 12.39C378.13 12.63 378.14 12.68 378.34 12.68C378.66 12.68 379.64 12.64 380.06 12.64C380.48 12.64 381.42 12.68 381.74 12.68C381.91 12.68 381.93 12.61 381.93 12.40C381.93 12.24 381.91 12.18 381.74 12.18L380.74 12.18C380.72 12.18 380.72 11.76 380.72 11.31C380.72 9.56 380.80 5.96 380.80 5.92C380.81 5.18 380.81 3.75 380.91 3.75L382.52 3.75C383.24 3.75 384.06 3.78 384.06 3.85C384.06 3.99 384.02 4.90 384.02 4.97C384.02 5.12 384.09 5.17 384.27 5.17C384.47 5.17 384.54 5.17 384.54 5.03C384.54 3.93 384.59 3.40 384.59 3.14C384.59 2.94 384.51 2.94 384.31 2.94C384.16 2.94 384.10 2.98 384.09 3.16C384.09 3.23 383.45 3.28 382.61 3.28L377.61 3.28C376.95 3.28 376.14 3.28 376.14 3.21L376.14 3.07C376.14 2.94 376.01 2.94 375.91 2.94C375.69 2.94 375.66 3.00 375.65 3.19C375.59 3.89 375.42 4.97 375.42 5.01ZM392.35 12.39C392.35 12.63 392.35 12.68 392.55 12.68C392.87 12.68 393.81 12.64 394.23 12.64C394.65 12.64 395.47 12.68 395.79 12.68C395.96 12.68 395.96 12.61 395.96 12.40C395.96 12.24 395.96 12.18 395.79 12.18L394.87 12.18C394.79 12.18 394.74 9.93 394.74 8.20C394.74 8.01 394.74 8.01 394.87 8.01L400.11 8.01C400.18 8.01 400.19 8.01 400.19 8.18L400.19 9.91C400.19 11.05 400.18 12.18 400.12 12.18L399.35 12.18C399.13 12.18 399.08 12.19 399.08 12.39C399.08 12.63 399.10 12.68 399.29 12.68C399.62 12.68 400.46 12.64 400.88 12.64C401.30 12.64 401.88 12.68 402.21 12.68C402.37 12.68 402.39 12.61 402.39 12.40C402.39 12.24 402.37 12.18 402.21 12.18L401.46 12.18C401.42 12.18 401.41 9.27 401.41 7.04C401.41 5.40 401.41 3.70 401.45 3.70L402.07 3.70C402.29 3.70 402.33 3.68 402.33 3.49C402.33 3.25 402.32 3.19 402.12 3.19C401.98 3.19 401.35 3.23 400.76 3.23C400.09 3.23 399.49 3.19 399.27 3.19C399.07 3.19 399.04 3.22 399.04 3.44C399.04 3.67 399.11 3.70 399.28 3.70L400.08 3.70C400.13 3.70 400.19 4.79 400.19 5.71L400.19 7.42C400.19 7.59 400.19 7.59 400.02 7.59L394.91 7.59C394.74 7.59 394.74 7.59 394.74 7.38C394.74 6.96 394.73 6.23 394.73 5.53C394.73 4.66 394.74 3.70 394.80 3.70L395.57 3.70C395.79 3.70 395.84 3.68 395.84 3.49C395.84 3.25 395.82 3.19 395.63 3.19C395.30 3.19 394.72 3.23 394.11 3.23C393.53 3.23 393.04 3.19 392.81 3.19C392.63 3.19 392.53 3.21 392.53 3.44C392.53 3.68 392.64 3.70 392.81 3.70L393.43 3.70C393.48 3.70 393.50 5.59 393.50 7.18L393.50 8.61C393.50 10.08 393.48 12.18 393.41 12.18L392.60 12.18C392.38 12.18 392.35 12.19 392.35 12.39ZM410.28 12.39C410.28 12.63 410.33 12.68 410.52 12.68C410.84 12.68 411.60 12.64 412.31 12.64C412.97 12.64 413.77 12.68 413.99 12.68C414.16 12.68 414.19 12.61 414.19 12.40C414.19 12.24 414.16 12.18 413.99 12.18L413.03 12.18C412.93 12.18 412.90 9.55 412.90 7.76L412.90 5.87C412.90 5.14 412.93 3.70 413.03 3.70L413.94 3.70C414.16 3.70 414.19 3.68 414.19 3.49C414.19 3.25 414.16 3.19 413.99 3.19C413.67 3.19 413.00 3.23 412.34 3.23C411.53 3.23 410.82 3.19 410.59 3.19C410.41 3.19 410.34 3.21 410.34 3.44C410.34 3.68 410.42 3.70 410.59 3.70L411.52 3.70C411.56 3.70 411.63 4.79 411.63 5.71L411.63 7.08C411.63 8.92 411.61 12.18 411.50 12.18L410.58 12.18C410.35 12.18 410.28 12.19 410.28 12.39ZM422.09 12.39C422.09 12.63 422.10 12.68 422.30 12.68C422.48 12.68 422.86 12.64 423.47 12.64C424.10 12.64 424.66 12.68 424.98 12.68C425.15 12.68 425.15 12.61 425.15 12.40C425.15 12.24 425.15 12.18 424.98 12.18L423.78 12.18C423.74 12.18 423.72 11.54 423.72 10.79C423.72 9.46 423.74 7.48 423.74 5.99C423.74 5.25 423.74 4.84 423.75 4.28C423.75 4.02 423.82 4.14 423.95 4.28L430.84 12.66C430.92 12.75 431.00 12.89 431.12 12.89C431.23 12.89 431.30 12.77 431.30 12.54C431.30 12.39 431.47 6.65 431.48 4.48C431.48 4.06 431.51 3.70 431.54 3.70L432.17 3.70C432.39 3.70 432.45 3.68 432.45 3.49C432.45 3.25 432.45 3.19 432.25 3.19C432.05 3.19 431.62 3.23 431.06 3.23C430.44 3.23 429.65 3.19 429.55 3.19C429.38 3.19 429.38 3.26 429.38 3.47C429.38 3.64 429.38 3.70 429.55 3.70L430.85 3.70C430.86 3.70 430.86 4.33 430.86 4.44C430.86 5.85 430.89 8.33 430.89 9.70L430.89 10.29C430.89 10.57 430.88 10.65 430.65 10.37L424.97 3.39C424.86 3.25 424.83 3.19 424.66 3.19C424.58 3.19 424.20 3.23 423.89 3.23C423.60 3.23 422.52 3.19 422.32 3.19C422.16 3.19 422.13 3.26 422.13 3.47C422.13 3.64 422.16 3.70 422.32 3.70L423.23 3.70C423.23 4.17 423.19 8.53 423.12 10.79C423.09 11.69 423.11 12.18 423.00 12.18L422.35 12.18C422.13 12.18 422.09 12.19 422.09 12.39ZM440.48 12.39C440.48 12.63 440.50 12.68 440.69 12.68C441.01 12.68 441.91 12.64 442.33 12.64C442.75 12.64 443.70 12.68 444.02 12.68C444.19 12.68 444.21 12.61 444.21 12.40C444.21 12.24 444.18 12.18 444.01 12.18L443.00 12.18C442.90 12.18 442.88 10.12 442.88 8.46C442.88 8.30 442.88 8.30 443.04 8.30L443.31 8.30C443.52 8.30 443.52 8.32 443.59 8.40L446.63 12.00C446.73 12.11 446.80 12.18 446.59 12.18L446.12 12.18C445.94 12.18 445.87 12.19 445.87 12.39C445.87 12.63 445.87 12.68 446.07 12.68C446.39 12.68 447.09 12.64 447.51 12.64C447.93 12.64 448.62 12.68 448.94 12.68C449.11 12.68 449.11 12.61 449.11 12.40C449.11 12.24 449.11 12.18 448.94 12.18L448.71 12.18C448.53 12.18 448.43 12.10 448.31 11.96L444.54 7.62C444.40 7.45 444.37 7.50 444.50 7.36C444.95 6.83 447.48 3.77 447.55 3.77L448.22 3.77C448.45 3.77 448.48 3.75 448.48 3.56C448.48 3.32 448.48 3.26 448.28 3.26C448.08 3.26 447.64 3.30 447.12 3.30C446.59 3.30 446.11 3.26 445.89 3.26C445.70 3.26 445.61 3.28 445.61 3.51C445.61 3.75 445.72 3.77 445.89 3.77L446.45 3.77C446.61 3.77 446.61 3.84 446.50 3.99C445.97 4.66 443.62 7.92 443.32 7.92L443.02 7.92C442.88 7.92 442.88 7.88 442.88 7.69L442.88 5.94C442.88 5.21 442.95 3.77 443.04 3.77L443.81 3.77C444.04 3.77 444.08 3.75 444.08 3.56C444.08 3.32 444.07 3.26 443.87 3.26C443.55 3.26 442.78 3.30 442.36 3.30C441.77 3.30 441.11 3.26 440.89 3.26C440.71 3.26 440.61 3.28 440.61 3.51C440.61 3.75 440.72 3.77 440.89 3.77L441.53 3.77C441.59 3.77 441.62 4.86 441.62 5.78L441.62 9.84C441.62 11.00 441.60 12.18 441.52 12.18L440.78 12.18C440.55 12.18 440.48 12.19 440.48 12.39ZM465.96 3.44C465.96 3.68 466.05 3.70 466.21 3.70L466.62 3.70C466.75 3.70 469.00 7.74 469.41 8.50C469.46 8.60 469.50 8.65 469.50 8.81C469.50 10.50 469.49 12.18 469.36 12.18L468.65 12.18C468.43 12.18 468.38 12.19 468.38 12.39C468.38 12.63 468.40 12.68 468.59 12.68C468.79 12.68 469.60 12.64 470.19 12.64C471.02 12.64 471.55 12.68 471.87 12.68C472.04 12.68 472.07 12.61 472.07 12.40C472.07 12.24 472.04 12.18 471.87 12.18L470.90 12.18C470.81 12.18 470.78 9.72 470.78 8.22C470.78 8.18 470.78 8.15 470.82 8.09C471.37 7.22 473.31 3.70 473.38 3.70L473.86 3.70C474.03 3.70 474.12 3.68 474.12 3.44C474.12 3.22 474.04 3.19 473.86 3.19C473.63 3.19 473.40 3.23 472.79 3.23C472.21 3.23 471.87 3.19 471.70 3.19C471.51 3.19 471.46 3.25 471.46 3.49C471.46 3.68 471.53 3.70 471.76 3.70L472.49 3.70C472.50 3.70 472.51 3.71 472.51 3.74C472.51 4.05 470.95 6.99 470.57 7.71C470.46 7.92 470.46 7.88 470.34 7.67C469.94 6.89 468.65 4.56 468.36 3.85C468.30 3.71 468.29 3.70 468.47 3.70L469.29 3.70C469.52 3.70 469.55 3.68 469.55 3.49C469.55 3.25 469.50 3.19 469.35 3.19C469.11 3.19 468.50 3.23 467.70 3.23C466.89 3.23 466.40 3.19 466.21 3.19C466.03 3.19 465.96 3.21 465.96 3.44ZM481.25 8.15C481.25 11.17 483.59 12.80 485.84 12.80C488.63 12.80 490.60 10.89 490.60 8.06C490.60 5.33 488.85 3.11 486.05 3.11C483.45 3.11 481.25 5.10 481.25 8.15ZM482.65 7.77C482.65 5.64 483.94 3.58 485.91 3.58C488.15 3.58 489.23 5.81 489.23 7.94C489.23 10.08 488.12 12.32 485.86 12.32C483.87 12.32 482.65 10.28 482.65 7.77ZM498.71 3.51C498.71 3.75 498.79 3.77 498.96 3.77L499.49 3.77C499.55 3.77 499.55 4.12 499.55 4.55C499.55 5.66 499.53 8.96 499.53 9.42C499.53 11.13 499.79 12.80 502.64 12.80C503.72 12.80 504.88 12.38 505.54 12.00C505.79 11.86 506.09 11.72 506.17 11.72C506.44 11.72 506.70 12.74 507.04 12.74C507.36 12.74 507.37 12.35 507.37 12.25C507.37 11.96 507.43 10.08 507.47 8.16C507.53 6.12 507.51 3.77 507.63 3.77L507.95 3.77C508.17 3.77 508.24 3.75 508.24 3.56C508.24 3.32 508.20 3.26 508.00 3.26C507.86 3.26 507.33 3.30 506.91 3.30C506.49 3.30 505.69 3.26 505.47 3.26C505.29 3.26 505.19 3.28 505.19 3.51C505.19 3.75 505.30 3.77 505.47 3.77L506.17 3.77C506.24 3.77 506.25 4.30 506.25 4.87L506.25 9.14C506.25 11.19 506.25 11.12 505.92 11.34C505.53 11.61 504.71 12.08 503.54 12.08C501.56 12.08 500.77 11.17 500.77 9.41C500.77 8.82 500.84 3.77 500.95 3.77L501.86 3.77C502.08 3.77 502.12 3.75 502.12 3.56C502.12 3.32 502.11 3.26 501.91 3.26C501.59 3.26 500.71 3.30 500.29 3.30C499.87 3.30 499.18 3.26 498.96 3.26C498.78 3.26 498.71 3.28 498.71 3.51ZM525.94 12.39C525.94 12.63 525.94 12.68 526.13 12.68C526.30 12.68 526.62 12.64 527.20 12.64C527.81 12.64 528.36 12.68 528.51 12.68C528.68 12.68 528.68 12.61 528.68 12.40C528.68 12.24 528.68 12.18 528.51 12.18L527.44 12.18C527.44 12.18 527.42 12.18 527.42 12.17C527.44 11.87 528.21 9.90 528.56 9.02C528.63 8.83 528.64 8.79 528.85 8.79L531.68 8.79C531.82 8.79 531.82 8.81 531.89 9.03C532.15 9.77 532.87 11.89 532.87 12.17C532.87 12.18 532.85 12.18 532.85 12.18L532.08 12.18C531.86 12.18 531.85 12.19 531.85 12.39C531.85 12.63 531.86 12.68 532.03 12.68C532.35 12.68 533.22 12.64 533.64 12.64C534.06 12.64 534.73 12.68 534.94 12.68C535.08 12.68 535.09 12.61 535.09 12.40C535.09 12.24 535.08 12.18 534.94 12.18L534.45 12.18C534.35 12.18 533.33 9.34 532.77 7.78L531.09 3.07C531.08 3.00 531.01 2.94 530.92 2.94C530.80 2.94 530.70 3.16 530.61 3.35C530.46 3.71 530.22 3.84 530.11 4.13L528.63 7.57C528.44 8.01 526.74 12.18 526.61 12.18L526.19 12.18C525.97 12.18 525.94 12.19 525.94 12.39ZM528.84 8.33C528.84 8.30 528.86 8.23 528.91 8.13L530.28 4.77C530.32 4.66 530.35 4.61 530.38 4.61C530.39 4.61 530.40 4.63 530.45 4.77L531.61 8.18C531.64 8.25 531.65 8.29 531.65 8.32C531.65 8.36 531.62 8.37 531.52 8.37L529.02 8.37C528.84 8.37 528.84 8.34 528.84 8.33ZM542.85 3.51C542.85 3.72 542.92 3.79 543.12 3.79L543.93 3.77C544.03 3.77 544.07 6.61 544.07 8.55L544.07 10.42C544.07 11.30 544.05 12.18 544.01 12.18L543.41 12.18C543.19 12.18 543.12 12.19 543.12 12.39C543.12 12.63 543.16 12.68 543.35 12.68C543.48 12.68 544.31 12.64 544.73 12.64C545.15 12.64 545.92 12.68 546.24 12.68C546.41 12.68 546.43 12.61 546.43 12.40C546.43 12.24 546.41 12.18 546.24 12.18L545.43 12.18C545.36 12.18 545.27 9.18 545.27 8.37C545.27 8.30 545.27 8.26 545.38 8.26C545.78 8.26 546.38 8.27 546.67 8.27C548.91 8.32 549.05 10.00 549.05 11.68L549.05 12.49C549.05 12.61 549.11 12.64 549.21 12.64C549.21 12.64 550.65 12.68 551.12 12.68C551.29 12.68 551.35 12.64 551.35 12.53C551.35 12.24 551.29 12.18 551.14 12.18L550.49 12.18C550.40 12.18 550.37 12.14 550.34 11.31C550.26 8.99 548.88 8.34 547.97 8.05C547.83 8.01 547.86 8.01 547.97 7.95C548.56 7.69 549.88 6.94 549.88 5.63C549.88 3.63 548.18 3.21 546.78 3.21C546.46 3.21 545.17 3.29 544.75 3.29C544.33 3.29 543.35 3.26 543.13 3.26C542.95 3.26 542.85 3.28 542.85 3.51ZM545.27 7.80L545.27 4.40C545.27 4.05 545.30 3.68 545.34 3.68C545.55 3.65 545.83 3.65 546.06 3.65C547.36 3.65 548.60 4.47 548.60 5.82C548.60 6.99 548.06 7.57 547.40 7.88C547.36 7.90 547.32 7.90 547.25 7.90C546.77 7.88 546.06 7.88 545.45 7.87C545.29 7.87 545.27 7.85 545.27 7.80ZM558.82 12.39C558.82 12.63 558.85 12.68 559.05 12.68C559.37 12.68 560.34 12.64 560.76 12.64C561.18 12.64 565.68 12.68 566.01 12.68C566.13 12.68 566.29 12.66 566.29 12.49C566.29 12.07 566.33 11.23 566.33 10.53C566.33 10.39 566.17 10.39 566.05 10.39C565.94 10.39 565.81 10.39 565.81 10.51C565.80 11.06 565.80 11.41 565.77 11.76C565.74 12.01 565.74 12.04 565.64 12.04C565.49 12.04 562.86 12.08 561.36 12.08C561.29 12.08 561.25 10.11 561.20 8.26C561.20 8.06 561.25 8.09 561.39 8.09L563.67 8.09C564.37 8.09 564.40 8.20 564.40 8.30L564.40 9.00C564.40 9.14 564.58 9.14 564.69 9.14C564.79 9.14 564.91 9.13 564.91 9.02C564.91 8.83 564.89 8.33 564.89 7.83C564.89 7.32 564.91 6.83 564.91 6.71C564.91 6.59 564.77 6.58 564.68 6.58C564.56 6.58 564.40 6.59 564.40 6.72L564.40 7.45C564.40 7.62 563.95 7.63 563.67 7.63L561.33 7.63C561.22 7.63 561.20 7.63 561.20 7.45C561.19 6.75 561.18 6.06 561.18 5.46C561.18 5.12 561.18 3.71 561.26 3.71C562.49 3.71 565.00 3.75 565.00 3.81C565.00 3.99 564.96 4.83 564.96 4.89C564.96 5.04 565.03 5.10 565.21 5.10C565.40 5.10 565.47 5.08 565.47 4.94C565.47 3.85 565.53 3.36 565.53 3.09C565.53 2.91 565.45 2.90 565.25 2.90C565.05 2.90 565.05 2.95 565.03 3.11C565.01 3.25 565.08 3.25 564.17 3.25C563.56 3.25 561.41 3.29 560.64 3.29C560.15 3.29 559.22 3.25 559.12 3.25C558.99 3.25 558.94 3.30 558.94 3.49C558.94 3.72 559.01 3.74 559.17 3.74L559.83 3.74C559.89 3.74 559.96 4.79 559.96 5.71C559.96 5.80 560.01 8.27 560.01 9.83L560.01 11.17C560.01 11.84 559.99 12.18 559.96 12.18L559.10 12.18C558.88 12.18 558.82 12.21 558.82 12.39ZM574.29 14.55C574.29 14.64 574.36 14.83 574.49 14.83C574.66 14.83 576.10 13.45 576.10 12.25C576.10 11.86 575.32 11.33 575.06 11.33C574.97 11.33 574.35 11.66 574.35 11.93C574.35 12.21 575.27 12.45 575.27 13.08C575.27 13.78 574.29 14.42 574.29 14.55ZM593.67 5.01C593.67 5.17 593.85 5.17 593.98 5.17C594.13 5.17 594.17 5.15 594.19 4.97L594.30 3.89C594.31 3.81 594.86 3.75 595.62 3.75L597.60 3.75C597.66 3.75 597.69 4.35 597.69 4.97C597.69 6.43 597.63 12.18 597.51 12.18L596.64 12.18C596.41 12.18 596.37 12.19 596.37 12.39C596.37 12.63 596.39 12.68 596.58 12.68C596.90 12.68 597.88 12.64 598.30 12.64C598.72 12.64 599.66 12.68 599.98 12.68C600.15 12.68 600.18 12.61 600.18 12.40C600.18 12.24 600.15 12.18 599.98 12.18L598.99 12.18C598.96 12.18 598.96 11.76 598.96 11.31C598.96 9.56 599.05 5.96 599.05 5.92C599.06 5.18 599.06 3.75 599.16 3.75L600.77 3.75C601.48 3.75 602.31 3.78 602.31 3.85C602.31 3.99 602.27 4.90 602.27 4.97C602.27 5.12 602.34 5.17 602.52 5.17C602.71 5.17 602.78 5.17 602.78 5.03C602.78 3.93 602.84 3.40 602.84 3.14C602.84 2.94 602.76 2.94 602.56 2.94C602.41 2.94 602.35 2.98 602.34 3.16C602.34 3.23 601.69 3.28 600.85 3.28L595.85 3.28C595.20 3.28 594.38 3.28 594.38 3.21L594.38 3.07C594.38 2.94 594.26 2.94 594.16 2.94C593.94 2.94 593.91 3.00 593.89 3.19C593.84 3.89 593.67 4.97 593.67 5.01ZM610.60 12.39C610.60 12.63 610.60 12.68 610.79 12.68C611.11 12.68 612.05 12.64 612.47 12.64C612.89 12.64 613.72 12.68 614.04 12.68C614.21 12.68 614.21 12.61 614.21 12.40C614.21 12.24 614.21 12.18 614.04 12.18L613.12 12.18C613.03 12.18 612.99 9.93 612.99 8.20C612.99 8.01 612.99 8.01 613.12 8.01L618.35 8.01C618.42 8.01 618.44 8.01 618.44 8.18L618.44 9.91C618.44 11.05 618.42 12.18 618.37 12.18L617.60 12.18C617.37 12.18 617.33 12.19 617.33 12.39C617.33 12.63 617.34 12.68 617.54 12.68C617.86 12.68 618.70 12.64 619.12 12.64C619.54 12.64 620.13 12.68 620.45 12.68C620.62 12.68 620.63 12.61 620.63 12.40C620.63 12.24 620.62 12.18 620.45 12.18L619.71 12.18C619.67 12.18 619.65 9.27 619.65 7.04C619.65 5.40 619.65 3.70 619.70 3.70L620.31 3.70C620.54 3.70 620.58 3.68 620.58 3.49C620.58 3.25 620.56 3.19 620.37 3.19C620.23 3.19 619.60 3.23 619.01 3.23C618.34 3.23 617.74 3.19 617.51 3.19C617.32 3.19 617.29 3.22 617.29 3.44C617.29 3.67 617.36 3.70 617.53 3.70L618.32 3.70C618.38 3.70 618.44 4.79 618.44 5.71L618.44 7.42C618.44 7.59 618.44 7.59 618.27 7.59L613.16 7.59C612.99 7.59 612.99 7.59 612.99 7.38C612.99 6.96 612.98 6.23 612.98 5.53C612.98 4.66 612.99 3.70 613.05 3.70L613.82 3.70C614.04 3.70 614.08 3.68 614.08 3.49C614.08 3.25 614.07 3.19 613.87 3.19C613.55 3.19 612.96 3.23 612.36 3.23C611.77 3.23 611.28 3.19 611.06 3.19C610.88 3.19 610.78 3.21 610.78 3.44C610.78 3.68 610.89 3.70 611.06 3.70L611.67 3.70C611.73 3.70 611.74 5.59 611.74 7.18L611.74 8.61C611.74 10.08 611.73 12.18 611.66 12.18L610.85 12.18C610.62 12.18 610.60 12.19 610.60 12.39ZM628.53 12.39C628.53 12.63 628.53 12.68 628.73 12.68C628.89 12.68 629.22 12.64 629.79 12.64C630.41 12.64 630.95 12.68 631.11 12.68C631.27 12.68 631.27 12.61 631.27 12.40C631.27 12.24 631.27 12.18 631.11 12.18L630.03 12.18C630.03 12.18 630.01 12.18 630.01 12.17C630.03 11.87 630.80 9.90 631.15 9.02C631.22 8.83 631.23 8.79 631.44 8.79L634.27 8.79C634.41 8.79 634.41 8.81 634.48 9.03C634.75 9.77 635.46 11.89 635.46 12.17C635.46 12.18 635.45 12.18 635.45 12.18L634.68 12.18C634.45 12.18 634.44 12.19 634.44 12.39C634.44 12.63 634.45 12.68 634.62 12.68C634.94 12.68 635.81 12.64 636.23 12.64C636.65 12.64 637.32 12.68 637.53 12.68C637.67 12.68 637.69 12.61 637.69 12.40C637.69 12.24 637.67 12.18 637.53 12.18L637.04 12.18C636.94 12.18 635.92 9.34 635.36 7.78L633.68 3.07C633.67 3.00 633.60 2.94 633.51 2.94C633.39 2.94 633.29 3.16 633.21 3.35C633.05 3.71 632.81 3.84 632.70 4.13L631.22 7.57C631.04 8.01 629.33 12.18 629.20 12.18L628.78 12.18C628.56 12.18 628.53 12.19 628.53 12.39ZM631.43 8.33C631.43 8.30 631.46 8.23 631.50 8.13L632.87 4.77C632.91 4.66 632.94 4.61 632.97 4.61C632.98 4.61 633.00 4.63 633.04 4.77L634.20 8.18C634.23 8.25 634.24 8.29 634.24 8.32C634.24 8.36 634.21 8.37 634.12 8.37L631.61 8.37C631.43 8.37 631.43 8.34 631.43 8.33ZM643.78 5.01C643.78 5.17 643.96 5.17 644.08 5.17C644.24 5.17 644.28 5.15 644.29 4.97L644.41 3.89C644.42 3.81 644.97 3.75 645.72 3.75L647.71 3.75C647.77 3.75 647.79 4.35 647.79 4.97C647.79 6.43 647.74 12.18 647.61 12.18L646.74 12.18C646.52 12.18 646.48 12.19 646.48 12.39C646.48 12.63 646.49 12.68 646.69 12.68C647.01 12.68 647.99 12.64 648.41 12.64C648.83 12.64 649.77 12.68 650.09 12.68C650.26 12.68 650.29 12.61 650.29 12.40C650.29 12.24 650.26 12.18 650.09 12.18L649.10 12.18C649.07 12.18 649.07 11.76 649.07 11.31C649.07 9.56 649.15 5.96 649.15 5.92C649.17 5.18 649.17 3.75 649.26 3.75L650.87 3.75C651.59 3.75 652.41 3.78 652.41 3.85C652.41 3.99 652.37 4.90 652.37 4.97C652.37 5.12 652.44 5.17 652.62 5.17C652.82 5.17 652.89 5.17 652.89 5.03C652.89 3.93 652.95 3.40 652.95 3.14C652.95 2.94 652.86 2.94 652.67 2.94C652.51 2.94 652.46 2.98 652.44 3.16C652.44 3.23 651.80 3.28 650.96 3.28L645.96 3.28C645.30 3.28 644.49 3.28 644.49 3.21L644.49 3.07C644.49 2.94 644.36 2.94 644.27 2.94C644.04 2.94 644.01 3.00 644.00 3.19C643.94 3.89 643.78 4.97 643.78 5.01ZM670.08 3.44C670.08 3.68 670.17 3.70 670.33 3.70L670.74 3.70C670.87 3.70 673.12 7.74 673.53 8.50C673.58 8.60 673.62 8.65 673.62 8.81C673.62 10.50 673.61 12.18 673.48 12.18L672.77 12.18C672.55 12.18 672.50 12.19 672.50 12.39C672.50 12.63 672.52 12.68 672.71 12.68C672.91 12.68 673.72 12.64 674.31 12.64C675.14 12.64 675.67 12.68 675.99 12.68C676.16 12.68 676.19 12.61 676.19 12.40C676.19 12.24 676.16 12.18 675.99 12.18L675.02 12.18C674.93 12.18 674.90 9.72 674.90 8.22C674.90 8.18 674.90 8.15 674.94 8.09C675.49 7.22 677.43 3.70 677.50 3.70L677.98 3.70C678.15 3.70 678.24 3.68 678.24 3.44C678.24 3.22 678.16 3.19 677.98 3.19C677.75 3.19 677.52 3.23 676.91 3.23C676.33 3.23 675.99 3.19 675.82 3.19C675.63 3.19 675.58 3.25 675.58 3.49C675.58 3.68 675.65 3.70 675.88 3.70L676.61 3.70C676.62 3.70 676.63 3.71 676.63 3.74C676.63 4.05 675.07 6.99 674.69 7.71C674.58 7.92 674.58 7.88 674.46 7.67C674.06 6.89 672.77 4.56 672.48 3.85C672.42 3.71 672.41 3.70 672.59 3.70L673.41 3.70C673.64 3.70 673.67 3.68 673.67 3.49C673.67 3.25 673.62 3.19 673.47 3.19C673.23 3.19 672.62 3.23 671.82 3.23C671.01 3.23 670.52 3.19 670.33 3.19C670.15 3.19 670.08 3.21 670.08 3.44ZM685.37 8.15C685.37 11.17 687.71 12.80 689.96 12.80C692.75 12.80 694.72 10.89 694.72 8.06C694.72 5.33 692.97 3.11 690.17 3.11C687.57 3.11 685.37 5.10 685.37 8.15ZM686.77 7.77C686.77 5.64 688.06 3.58 690.03 3.58C692.27 3.58 693.35 5.81 693.35 7.94C693.35 10.08 692.24 12.32 689.98 12.32C687.99 12.32 686.77 10.28 686.77 7.77ZM702.83 3.51C702.83 3.75 702.91 3.77 703.08 3.77L703.61 3.77C703.67 3.77 703.67 4.12 703.67 4.55C703.67 5.66 703.65 8.96 703.65 9.42C703.65 11.13 703.91 12.80 706.76 12.80C707.84 12.80 709.00 12.38 709.66 12.00C709.91 11.86 710.21 11.72 710.29 11.72C710.56 11.72 710.82 12.74 711.16 12.74C711.48 12.74 711.49 12.35 711.49 12.25C711.49 11.96 711.55 10.08 711.59 8.16C711.65 6.12 711.63 3.77 711.75 3.77L712.07 3.77C712.29 3.77 712.36 3.75 712.36 3.56C712.36 3.32 712.32 3.26 712.12 3.26C711.98 3.26 711.45 3.30 711.03 3.30C710.61 3.30 709.81 3.26 709.59 3.26C709.41 3.26 709.31 3.28 709.31 3.51C709.31 3.75 709.42 3.77 709.59 3.77L710.29 3.77C710.36 3.77 710.37 4.30 710.37 4.87L710.37 9.14C710.37 11.19 710.37 11.12 710.04 11.34C709.65 11.61 708.83 12.08 707.66 12.08C705.68 12.08 704.89 11.17 704.89 9.41C704.89 8.82 704.96 3.77 705.07 3.77L705.98 3.77C706.20 3.77 706.24 3.75 706.24 3.56C706.24 3.32 706.23 3.26 706.03 3.26C705.71 3.26 704.83 3.30 704.41 3.30C703.99 3.30 703.30 3.26 703.08 3.26C702.90 3.26 702.83 3.28 702.83 3.51ZM730.06 12.39C730.06 12.63 730.06 12.68 730.25 12.68C730.42 12.68 730.74 12.64 731.32 12.64C731.93 12.64 732.48 12.68 732.63 12.68C732.80 12.68 732.80 12.61 732.80 12.40C732.80 12.24 732.80 12.18 732.63 12.18L731.56 12.18C731.56 12.18 731.54 12.18 731.54 12.17C731.56 11.87 732.33 9.90 732.68 9.02C732.75 8.83 732.76 8.79 732.97 8.79L735.80 8.79C735.94 8.79 735.94 8.81 736.01 9.03C736.27 9.77 736.99 11.89 736.99 12.17C736.99 12.18 736.97 12.18 736.97 12.18L736.20 12.18C735.98 12.18 735.97 12.19 735.97 12.39C735.97 12.63 735.98 12.68 736.15 12.68C736.47 12.68 737.34 12.64 737.76 12.64C738.18 12.64 738.85 12.68 739.06 12.68C739.20 12.68 739.21 12.61 739.21 12.40C739.21 12.24 739.20 12.18 739.06 12.18L738.57 12.18C738.47 12.18 737.45 9.34 736.89 7.78L735.21 3.07C735.20 3.00 735.13 2.94 735.04 2.94C734.92 2.94 734.82 3.16 734.73 3.35C734.58 3.71 734.34 3.84 734.23 4.13L732.75 7.57C732.56 8.01 730.86 12.18 730.73 12.18L730.31 12.18C730.09 12.18 730.06 12.19 730.06 12.39ZM732.96 8.33C732.96 8.30 732.98 8.23 733.03 8.13L734.40 4.77C734.44 4.66 734.47 4.61 734.50 4.61C734.51 4.61 734.52 4.63 734.57 4.77L735.73 8.18C735.76 8.25 735.77 8.29 735.77 8.32C735.77 8.36 735.74 8.37 735.64 8.37L733.14 8.37C732.96 8.37 732.96 8.34 732.96 8.33ZM746.97 3.51C746.97 3.72 747.04 3.79 747.24 3.79L748.05 3.77C748.15 3.77 748.19 6.61 748.19 8.55L748.19 10.42C748.19 11.30 748.17 12.18 748.13 12.18L747.53 12.18C747.31 12.18 747.24 12.19 747.24 12.39C747.24 12.63 747.28 12.68 747.47 12.68C747.60 12.68 748.43 12.64 748.85 12.64C749.27 12.64 750.04 12.68 750.36 12.68C750.53 12.68 750.55 12.61 750.55 12.40C750.55 12.24 750.53 12.18 750.36 12.18L749.55 12.18C749.48 12.18 749.39 9.18 749.39 8.37C749.39 8.30 749.39 8.26 749.50 8.26C749.90 8.26 750.50 8.27 750.79 8.27C753.03 8.32 753.17 10.00 753.17 11.68L753.17 12.49C753.17 12.61 753.23 12.64 753.33 12.64C753.33 12.64 754.77 12.68 755.24 12.68C755.41 12.68 755.47 12.64 755.47 12.53C755.47 12.24 755.41 12.18 755.26 12.18L754.61 12.18C754.52 12.18 754.49 12.14 754.46 11.31C754.38 8.99 753.00 8.34 752.09 8.05C751.95 8.01 751.98 8.01 752.09 7.95C752.68 7.69 754.00 6.94 754.00 5.63C754.00 3.63 752.30 3.21 750.90 3.21C750.58 3.21 749.29 3.29 748.87 3.29C748.45 3.29 747.47 3.26 747.25 3.26C747.07 3.26 746.97 3.28 746.97 3.51ZM749.39 7.80L749.39 4.40C749.39 4.05 749.42 3.68 749.46 3.68C749.67 3.65 749.95 3.65 750.18 3.65C751.48 3.65 752.72 4.47 752.72 5.82C752.72 6.99 752.18 7.57 751.52 7.88C751.48 7.90 751.44 7.90 751.37 7.90C750.89 7.88 750.18 7.88 749.57 7.87C749.41 7.87 749.39 7.85 749.39 7.80ZM762.94 12.39C762.94 12.63 762.97 12.68 763.17 12.68C763.49 12.68 764.46 12.64 764.88 12.64C765.30 12.64 769.80 12.68 770.13 12.68C770.25 12.68 770.41 12.66 770.41 12.49C770.41 12.07 770.45 11.23 770.45 10.53C770.45 10.39 770.29 10.39 770.17 10.39C770.06 10.39 769.93 10.39 769.93 10.51C769.92 11.06 769.92 11.41 769.89 11.76C769.86 12.01 769.86 12.04 769.76 12.04C769.61 12.04 766.98 12.08 765.48 12.08C765.41 12.08 765.37 10.11 765.32 8.26C765.32 8.06 765.37 8.09 765.51 8.09L767.79 8.09C768.49 8.09 768.52 8.20 768.52 8.30L768.52 9.00C768.52 9.14 768.70 9.14 768.81 9.14C768.91 9.14 769.03 9.13 769.03 9.02C769.03 8.83 769.01 8.33 769.01 7.83C769.01 7.32 769.03 6.83 769.03 6.71C769.03 6.59 768.89 6.58 768.80 6.58C768.68 6.58 768.52 6.59 768.52 6.72L768.52 7.45C768.52 7.62 768.07 7.63 767.79 7.63L765.45 7.63C765.34 7.63 765.32 7.63 765.32 7.45C765.31 6.75 765.30 6.06 765.30 5.46C765.30 5.12 765.30 3.71 765.38 3.71C766.61 3.71 769.12 3.75 769.12 3.81C769.12 3.99 769.08 4.83 769.08 4.89C769.08 5.04 769.15 5.10 769.33 5.10C769.52 5.10 769.59 5.08 769.59 4.94C769.59 3.85 769.65 3.36 769.65 3.09C769.65 2.91 769.57 2.90 769.37 2.90C769.17 2.90 769.17 2.95 769.15 3.11C769.13 3.25 769.20 3.25 768.29 3.25C767.68 3.25 765.53 3.29 764.76 3.29C764.27 3.29 763.34 3.25 763.24 3.25C763.11 3.25 763.06 3.30 763.06 3.49C763.06 3.72 763.13 3.74 763.29 3.74L763.95 3.74C764.01 3.74 764.08 4.79 764.08 5.71C764.08 5.80 764.13 8.27 764.13 9.83L764.13 11.17C764.13 11.84 764.11 12.18 764.08 12.18L763.22 12.18C763.00 12.18 762.94 12.21 762.94 12.39Z"></path></g></svg>