<svg data-v-423bf9ae="" xmlns="http://www.w3.org/2000/svg" viewBox="0 0 475 90" class="iconLeft"><!----><!----><!----><g data-v-423bf9ae="" id="95d08039-21fe-44b8-b033-8a08caa818a0" fill="#341930" transform="matrix(5.830903811703725,0,0,5.830903811703725,123.51759047033318,2.3469397142517323)"><path d="M2.94 12.29L2.94 8.67L0 2.69L1.89 2.69L3.85 6.90L3.91 6.90L5.85 2.69L7.66 2.69L4.73 8.67L4.73 12.29L2.94 12.29ZM9.70 12.46L9.70 12.46Q9.02 12.46 8.44 11.99L8.44 11.99L8.44 11.99Q7.85 11.52 7.85 10.39L7.85 10.39L7.85 10.39Q7.85 8.99 8.81 8.40L8.81 8.40L8.81 8.40Q9.76 7.81 11.51 7.81L11.51 7.81L11.51 7.04L11.51 7.04Q11.51 6.61 11.35 6.37L11.35 6.37L11.35 6.37Q11.19 6.13 10.74 6.13L10.74 6.13L10.74 6.13Q10.28 6.13 10.07 6.36L10.07 6.36L10.07 6.36Q9.86 6.59 9.86 6.90L9.86 6.90L9.86 7.11L8.22 7.11L8.22 7.11Q8.20 7.03 8.20 6.80L8.20 6.80L8.20 6.80Q8.20 5.88 8.88 5.32L8.88 5.32L8.88 5.32Q9.56 4.76 10.70 4.76L10.70 4.76L10.70 4.76Q11.96 4.76 12.58 5.32L12.58 5.32L12.58 5.32Q13.20 5.88 13.20 6.93L13.20 6.93L13.20 10.56L13.20 10.56Q13.20 10.81 13.31 10.93L13.31 10.93L13.31 10.93Q13.43 11.05 13.59 11.05L13.59 11.05L13.93 11.05L13.93 12.24L13.93 12.24Q13.51 12.46 12.94 12.46L12.94 12.46L12.94 12.46Q12.45 12.46 12.10 12.20L12.10 12.20L12.10 12.20Q11.76 11.94 11.63 11.49L11.63 11.49L11.56 11.49L11.56 11.49Q11.21 11.98 10.80 12.22L10.80 12.22L10.80 12.22Q10.39 12.46 9.70 12.46L9.70 12.46ZM10.40 11.06L10.40 11.06Q10.96 11.06 11.23 10.61L11.23 10.61L11.23 10.61Q11.51 10.16 11.51 9.45L11.51 9.45L11.51 9.03L11.51 9.03Q10.65 9.03 10.12 9.30L10.12 9.30L10.12 9.30Q9.58 9.58 9.58 10.23L9.58 10.23L9.58 10.23Q9.58 10.63 9.78 10.84L9.78 10.84L9.78 10.84Q9.98 11.06 10.40 11.06L10.40 11.06ZM14.81 12.29L14.81 4.93L16.21 4.93L16.38 5.84L16.46 5.84L16.46 5.84Q16.79 5.36 17.25 5.06L17.25 5.06L17.25 5.06Q17.71 4.76 18.33 4.76L18.33 4.76L18.33 4.76Q19.24 4.76 19.76 5.33L19.76 5.33L19.76 5.33Q20.29 5.89 20.29 7.13L20.29 7.13L20.29 12.29L18.61 12.29L18.61 7.59L18.61 7.59Q18.61 6.90 18.36 6.59L18.36 6.59L18.36 6.59Q18.12 6.29 17.64 6.29L17.64 6.29L17.64 6.29Q17.15 6.29 16.82 6.71L16.82 6.71L16.82 6.71Q16.49 7.14 16.49 7.76L16.49 7.76L16.49 12.29L14.81 12.29ZM21.81 3.70L21.81 2.17L23.49 2.17L23.49 3.70L21.81 3.70ZM21.81 12.29L21.81 4.93L23.49 4.93L23.49 12.29L21.81 12.29ZM25.00 12.29L25.00 2.17L26.68 2.17L26.68 7.85L28.74 4.93L30.53 4.93L28.35 7.92L30.65 12.29L28.78 12.29L27.30 9.24L26.68 10.00L26.68 12.29L25.00 12.29ZM34.66 12.29L34.66 2.69L36.46 2.69L36.46 10.61L40.52 10.61L40.52 12.29L34.66 12.29ZM44.35 12.46L44.35 12.46Q42.87 12.46 42.14 11.52L42.14 11.52L42.14 11.52Q41.41 10.58 41.41 8.61L41.41 8.61L41.41 8.61Q41.41 6.64 42.14 5.70L42.14 5.70L42.14 5.70Q42.87 4.76 44.35 4.76L44.35 4.76L44.35 4.76Q45.84 4.76 46.56 5.70L46.56 5.70L46.56 5.70Q47.29 6.64 47.29 8.61L47.29 8.61L47.29 8.61Q47.29 10.58 46.56 11.52L46.56 11.52L46.56 11.52Q45.84 12.46 44.35 12.46L44.35 12.46ZM44.35 11.05L44.35 11.05Q44.98 11.05 45.26 10.51L45.26 10.51L45.26 10.51Q45.54 9.97 45.54 8.88L45.54 8.88L45.54 8.34L45.54 8.34Q45.54 7.25 45.26 6.71L45.26 6.71L45.26 6.71Q44.98 6.17 44.35 6.17L44.35 6.17L44.35 6.17Q43.72 6.17 43.44 6.71L43.44 6.71L43.44 6.71Q43.16 7.25 43.16 8.34L43.16 8.34L43.16 8.88L43.16 8.88Q43.16 9.97 43.44 10.51L43.44 10.51L43.44 10.51Q43.72 11.05 44.35 11.05L44.35 11.05ZM50.19 12.29L47.91 4.93L49.67 4.93L50.62 8.09L50.62 8.09Q50.74 8.44 50.89 9.24L50.89 9.24L50.89 9.24Q51.04 10.04 51.09 10.30L51.09 10.30L51.14 10.30L51.14 10.30Q51.18 10.05 51.31 9.28L51.31 9.28L51.31 9.28Q51.44 8.50 51.56 8.09L51.56 8.09L52.50 4.93L54.18 4.93L51.90 12.29L50.19 12.29ZM57.55 12.46L57.55 12.46Q56.11 12.46 55.39 11.52L55.39 11.52L55.39 11.52Q54.67 10.57 54.67 8.61L54.67 8.61L54.67 8.61Q54.67 4.76 57.50 4.76L57.50 4.76L57.50 4.76Q58.84 4.76 59.50 5.70L59.50 5.70L59.50 5.70Q60.16 6.64 60.16 8.61L60.16 8.61L60.16 9.03L56.42 9.03L56.42 9.03Q56.43 10.07 56.69 10.58L56.69 10.58L56.69 10.58Q56.95 11.09 57.55 11.09L57.55 11.09L57.55 11.09Q57.99 11.09 58.24 10.72L58.24 10.72L58.24 10.72Q58.49 10.35 58.49 9.69L58.49 9.69L60.16 9.69L60.16 9.69Q60.16 11.06 59.44 11.76L59.44 11.76L59.44 11.76Q58.73 12.46 57.55 12.46L57.55 12.46ZM56.43 7.81L58.39 7.81L58.39 7.81Q58.39 6.13 57.50 6.13L57.50 6.13L57.50 6.13Q56.98 6.13 56.73 6.56L56.73 6.56L56.73 6.56Q56.48 6.99 56.43 7.81L56.43 7.81Z"></path></g><defs data-v-423bf9ae=""><linearGradient data-v-423bf9ae="" gradientTransform="rotate(25)" id="697cd471-058e-4582-9190-3282b274b0f7" x1="0%" y1="0%" x2="100%" y2="0%"><stop data-v-423bf9ae="" offset="0%" style="stop-color: rgb(142, 66, 211); stop-opacity: 1;"></stop><stop data-v-423bf9ae="" offset="100%" style="stop-color: rgb(212, 105, 117); stop-opacity: 1;"></stop></linearGradient></defs><g data-v-423bf9ae="" id="9df941d8-8e63-4ed9-a513-ffc35178ca65" transform="matrix(1.0385118508871758,0,0,1.0385118508871758,0.2350313123535912,-6.256817505964442)" stroke="none" fill="url(#697cd471-058e-4582-9190-3282b274b0f7)"><path d="M73.262 6.669C57.377 6.758 50 20.143 50 20.143S42.624 6.758 26.736 6.669C1.49 6.528-7.738 38.265 7.689 59.29 18.508 74.043 31.275 81.133 50 93.331 68.723 81.133 81.488 74.043 92.311 59.29c15.427-21.025 6.197-52.762-19.049-52.621zM88.635 42.72a3.374 3.374 0 0 1-2.773-3.884c1.531-9.194-4.705-17.922-13.9-19.454a3.374 3.374 0 1 1 1.11-6.657c12.867 2.143 21.59 14.354 19.445 27.221a3.375 3.375 0 0 1-3.882 2.774z"></path></g><!----></svg>